<svg width="40" height="40" fill="none" xmlns="http://www.w3.org/2000/svg"><g stroke="#ACB1BA" stroke-width="1.3" stroke-miterlimit="10"><path d="M23.444 28.142h-1.252a1.879 1.879 0 0 0-1.879 1.878 1.879 1.879 0 0 0-1.879-1.878h-1.252a1.879 1.879 0 0 1-1.879-1.88v-8.14a.627.627 0 0 1 .626-.627h8.768a.626.626 0 0 1 .626.627v8.14a1.879 1.879 0 0 1-1.879 1.88zm-5.01-18.788H14.31a.626.626 0 0 0-.443 1.069l1.847 1.847a5.01 5.01 0 0 1 1.468 3.543v1.682"/><path d="M20.313 17.495v-1.53c0-1.827-.726-3.58-2.018-4.871l-1.74-1.74m-3.131.626h-.626c-.692 0-1.253.56-1.253 1.253v1.878c0-.691.561-1.252 1.253-1.252h2.505m1.252-4.071a1.566 1.566 0 1 1-3.13 0 1.566 1.566 0 0 1 3.13 0zM14.99 4.97v1.252M9.403 16.267L3.404 11.86s-.391 3.092 1.683 5.597m8.207 1.669l-1.746-1.283"/><path d="M15.225 22.662l-12.447-6.42s.783 3.562 3.483 4.932"/><path d="M12.172 21.253H4.657s.9 1.878 3.287 2.544"/><path d="M12.276 21.161l-5.114 3.223s2.7 1.174 5.166-.078m1.214-2.232l-1.553 3.236s2.12-.124 3.255-1.416m.059-5.773a1.247 1.247 0 0 1-.367.886 1.252 1.252 0 1 1-1.771-1.771l-8.508-9.76s-.757 2.987.887 5.962m9.759 13.039a3.759 3.759 0 0 0-2.505 3.543h3.131c0-1.037.841-1.878 1.879-1.878m-3.131 1.878v1.253c0 .692-.561 1.252-1.253 1.252H9.53m10.783-2.505v9.394m-2.505-1.252V35.96a3.758 3.758 0 0 1 1.1-2.657l.304-.304a3.757 3.757 0 0 0 1.101-2.657v-.323"/><path d="M15.303 37.535v-1.743a2.505 2.505 0 0 1 1.177-2.124l2.656-1.66a2.505 2.505 0 0 0 1.177-2.124v-.49m1.879-20.04h4.124c.558 0 .838.674.443 1.069l-1.847 1.847a5.01 5.01 0 0 0-1.468 3.543v1.682"/><path d="M20.313 17.495v-1.53a6.889 6.889 0 0 1 2.018-4.871l1.74-1.74m3.131.626h.626c.692 0 1.253.56 1.253 1.253v1.878c0-.691-.561-1.252-1.253-1.252h-2.505m8.765 2.303l3.134-2.303s.392 3.092-1.683 5.597m-8.207 1.67l4.717-3.466"/><path d="M25.401 22.662l12.447-6.42s-.782 3.562-3.483 4.932"/><path d="M28.454 21.253h7.515s-.9 1.878-3.287 2.544"/><path d="M28.35 21.161l5.114 3.223s-2.7 1.174-5.166-.078m-1.214-2.232l1.553 3.236s-2.12-.124-3.255-1.416m-.059-5.773a1.248 1.248 0 0 0 .367.886 1.252 1.252 0 1 0 1.771-1.771l8.508-9.76s.757 2.987-.887 5.962m-9.759 13.039a3.76 3.76 0 0 1 2.505 3.543h-3.131a1.879 1.879 0 0 0-1.879-1.878m3.132 1.878v1.253c0 .692.56 1.252 1.31 1.233h3.504m-7.946 5.656V35.96a3.756 3.756 0 0 0-1.1-2.657L21.414 33a3.758 3.758 0 0 1-1.1-2.657v-.323"/><path d="M25.323 37.535v-1.743a2.505 2.505 0 0 0-1.177-2.124l-2.656-1.66a2.505 2.505 0 0 1-1.177-2.124v-.49m0-28.808v3.758m-.626-3.132h1.252m1.841 3.444a1.255 1.255 0 0 0-2.182-.48.37.37 0 0 1-.57 0 1.255 1.255 0 0 0-2.181.48c-.123.503.06.967.397 1.257.128.11.19.279.19.447v.489h3.758V6.36c0-.168.062-.337.19-.447.338-.29.52-.754.398-1.257zm11.31 26.617a1.879 1.879 0 1 1-3.757 0 1.879 1.879 0 0 1 3.758 0zm-1.878-3.131v1.252m-28-3.374l6.707 8.384M4.657 25.01a1.253 1.253 0 1 1-2.505 0 1.253 1.253 0 0 1 2.505 0zm13.151.626v-1.878c0-.692.56-1.253 1.253-1.253h2.505v-1.253c0-.691.56-1.252 1.252-1.252m-3.131 0v5.636"/><path d="M23.444 23.757l-.626-1.252H20.94l1.253 3.131m-3.133-5.009h.627m7.515-12.839a1.566 1.566 0 1 1-3.131 0 1.566 1.566 0 0 1 3.13 0zM25.636 4.97v1.252"/></g></svg>