<svg width="272" height="45" viewBox="0 0 272 45" fill="none" xmlns="http://www.w3.org/2000/svg">
<path d="M5.01157 27.2704V13.699H0V9.87245H5.01157V2.19388H9.63364V9.87245H18.67V13.699H9.63364V27.4745C9.63364 28.6139 9.9539 29.5238 10.5944 30.2041C11.2522 30.8673 12.0832 31.199 13.0872 31.199C14.1605 31.199 15.0001 30.8929 15.606 30.2806C16.2292 29.6514 16.6446 28.665 16.8524 27.3214L21.1109 28.2653C20.7647 30.4762 19.9078 32.1769 18.5402 33.3673C17.1726 34.5578 15.4069 35.1531 13.243 35.1531C10.5944 35.1531 8.56035 34.4643 7.14084 33.0867C5.72133 31.7092 5.01157 29.7704 5.01157 27.2704Z" fill="#27292F"/>
<path d="M23.7356 9.87245H28.3058V13.4949C28.8597 12.1684 29.6907 11.148 30.7986 10.4337C31.9065 9.71939 33.2221 9.36224 34.7455 9.36224C36.7709 9.36224 38.4241 10.0085 39.7051 11.301C41.0035 12.5935 41.6526 14.1922 41.6526 16.0969C41.6526 17.1003 41.5488 18.0272 41.341 18.8776H36.8748C36.9786 18.1293 37.0306 17.517 37.0306 17.0408C37.0306 15.8844 36.667 14.9745 35.94 14.3112C35.2302 13.648 34.2521 13.3163 33.0057 13.3163C31.5862 13.3163 30.4437 13.8265 29.5781 14.8469C28.7299 15.8673 28.3058 17.2109 28.3058 18.8776V34.6429H23.7356V9.87245Z" fill="#27292F"/>
<path d="M45.0304 9.87245H49.6005V34.6429H45.0304V9.87245ZM44.7707 5.28061V0H49.8862V5.28061H44.7707Z" fill="#27292F"/>
<path d="M59.1583 34.6429H54.5882V9.87245H59.1583V13.9031C60.0412 12.4575 61.2011 11.3435 62.6379 10.5612C64.092 9.7619 65.702 9.36224 67.4677 9.36224C70.1855 9.36224 72.3408 10.1786 73.9334 11.8112C75.5433 13.4269 76.3483 15.6718 76.3483 18.5459V34.6429H71.7262V19.898C71.7262 17.7551 71.2242 16.1224 70.2201 15C69.2161 13.8776 67.7966 13.3163 65.9616 13.3163C64.0055 13.3163 62.3782 14.0306 61.0799 15.4592C59.7989 16.8707 59.1583 18.7415 59.1583 21.0714V34.6429Z" fill="#27292F"/>
<path d="M81.336 9.87245H85.9061V34.6429H81.336V9.87245ZM81.0763 5.28061V0H86.1917V5.28061H81.0763Z" fill="#27292F"/>
<path d="M93.5684 27.2704V13.699H88.5568V9.87245H93.5684V2.19388H98.1904V9.87245H107.227V13.699H98.1904V27.4745C98.1904 28.6139 98.5107 29.5238 99.1512 30.2041C99.809 30.8673 100.64 31.199 101.644 31.199C102.717 31.199 103.557 30.8929 104.163 30.2806C104.786 29.6514 105.201 28.665 105.409 27.3214L109.668 28.2653C109.321 30.4762 108.465 32.1769 107.097 33.3673C105.729 34.5578 103.964 35.1531 101.8 35.1531C99.1512 35.1531 97.1171 34.4643 95.6976 33.0867C94.2781 31.7092 93.5684 29.7704 93.5684 27.2704Z" fill="#27292F"/>
<path d="M127.95 9.87245H132.832L116.681 45H111.773L118.005 31.4541L108.371 9.87245H113.383L120.446 26.1735L127.95 9.87245Z" fill="#27292F"/>
<path d="M144.106 28.1633L147.871 26.2245C148.581 27.9762 149.533 29.2432 150.727 30.0255C151.922 30.8078 153.471 31.199 155.375 31.199C157.037 31.199 158.353 30.8759 159.322 30.2296C160.309 29.5663 160.802 28.6905 160.802 27.602C160.802 26.3946 160.309 25.4592 159.322 24.7959C158.353 24.1156 156.63 23.6054 154.155 23.2653C148.373 22.432 145.482 20.0595 145.482 16.148C145.482 14.1582 146.33 12.5425 148.027 11.301C149.775 10.0085 151.956 9.36224 154.57 9.36224C159.019 9.36224 162.049 11.1905 163.659 14.8469L160.101 16.7857C159.236 14.2687 157.392 13.0102 154.57 13.0102C153.168 13.0102 152 13.3078 151.065 13.9031C150.147 14.4813 149.689 15.2466 149.689 16.199C149.689 17.2534 150.191 18.0612 151.195 18.6224C152.199 19.1837 153.947 19.6344 156.44 19.9745C162.326 20.7568 165.269 23.2058 165.269 27.3214C165.269 29.6003 164.299 31.4796 162.36 32.9592C160.439 34.4218 158.041 35.1531 155.168 35.1531C152.38 35.1531 150.026 34.5323 148.105 33.2908C146.2 32.0323 144.867 30.3231 144.106 28.1633Z" fill="#27292F"/>
<path d="M168.854 9.87245H173.216V14.5408C174.047 13.0272 175.294 11.7857 176.956 10.8163C178.635 9.84694 180.401 9.36224 182.253 9.36224C185.663 9.36224 188.433 10.5612 190.562 12.9592C192.691 15.3401 193.756 18.4439 193.756 22.2704C193.756 26.0799 192.648 29.1837 190.432 31.5816C188.217 33.9626 185.386 35.1531 181.941 35.1531C180.124 35.1531 178.462 34.7704 176.956 34.0051C175.45 33.2228 174.272 32.1429 173.424 30.7653V45H168.854V9.87245ZM181.188 31.148C183.387 31.148 185.265 30.3656 186.823 28.801C188.398 27.2194 189.186 25.0595 189.186 22.3214C189.186 19.6003 188.398 17.4405 186.823 15.8418C185.265 14.2432 183.387 13.4439 181.188 13.4439C179.094 13.4439 177.241 14.2687 175.631 15.9184C174.021 17.568 173.216 19.7024 173.216 22.3214C173.216 24.9405 174.021 27.0663 175.631 28.699C177.241 30.3316 179.094 31.148 181.188 31.148Z" fill="#27292F"/>
<path d="M196.043 27.602C196.043 25.1361 196.9 23.2398 198.614 21.9133C200.328 20.5697 202.596 19.898 205.417 19.898C207.218 19.898 209.001 20.1616 210.766 20.6888L213.077 21.3265V18.75C213.077 16.9813 212.497 15.6122 211.338 14.6429C210.195 13.6565 208.663 13.1633 206.742 13.1633C204.941 13.1633 203.452 13.6224 202.275 14.5408C201.115 15.4422 200.371 16.6922 200.042 18.2908L195.887 17.1429C196.407 14.7449 197.619 12.8486 199.523 11.4541C201.427 10.0595 203.833 9.36224 206.742 9.36224C210.152 9.36224 212.792 10.2211 214.661 11.9388C216.548 13.6565 217.492 16.0544 217.492 19.1327V34.6429H213.077V30.7143C212.437 32.0578 211.329 33.1378 209.754 33.9541C208.196 34.7534 206.413 35.1531 204.405 35.1531C202.05 35.1531 200.059 34.4813 198.432 33.1378C196.84 31.7262 196.043 29.881 196.043 27.602ZM213.077 25.4082V24.8724L210.714 24.1837C208.949 23.6735 207.391 23.4184 206.04 23.4184C204.396 23.4184 203.106 23.7585 202.171 24.4388C201.237 25.102 200.769 26.0629 200.769 27.3214C200.769 28.4949 201.219 29.4388 202.119 30.1531C203.02 30.8503 204.292 31.199 205.937 31.199C208.066 31.199 209.788 30.6803 211.104 29.6429C212.42 28.5884 213.077 27.1769 213.077 25.4082Z" fill="#27292F"/>
<path d="M234.061 31.199C236.415 31.199 238.259 30.5697 239.591 29.3112C240.942 28.0357 241.877 26.1905 242.396 23.7755L246.499 25.2806C245.789 28.4099 244.352 30.8418 242.188 32.5765C240.024 34.2942 237.35 35.1531 234.164 35.1531C230.2 35.1531 226.998 33.9541 224.557 31.5561C222.133 29.1582 220.921 26.0034 220.921 22.0918C220.921 20.2721 221.259 18.5714 221.934 16.9898C222.609 15.3912 223.518 14.0391 224.661 12.9337C225.803 11.8282 227.145 10.9609 228.685 10.3316C230.243 9.68537 231.871 9.36224 233.567 9.36224C236.631 9.36224 239.193 10.1531 241.253 11.7347C243.331 13.2993 244.672 15.4847 245.278 18.2908L241.072 19.5408C240.673 17.568 239.825 16.0374 238.527 14.949C237.229 13.8605 235.558 13.3163 233.515 13.3163C232.529 13.3163 231.559 13.5119 230.607 13.9031C229.655 14.2942 228.781 14.8469 227.984 15.5612C227.205 16.2755 226.574 17.2024 226.089 18.3418C225.621 19.4813 225.388 20.7313 225.388 22.0918C225.388 24.7619 226.245 26.9473 227.958 28.648C229.69 30.3486 231.724 31.199 234.061 31.199Z" fill="#27292F"/>
<path d="M268.027 25.6633L272 27.1684C271.134 29.7364 269.75 31.7092 267.845 33.0867C265.941 34.4643 263.569 35.1531 260.73 35.1531C256.991 35.1531 253.936 33.9626 251.564 31.5816C249.21 29.2007 248.033 26.0374 248.033 22.0918C248.033 19.7279 248.526 17.585 249.513 15.6633C250.517 13.7245 251.936 12.1939 253.771 11.0714C255.624 9.93197 257.718 9.36224 260.055 9.36224C263.431 9.36224 266.14 10.3146 268.183 12.2194C270.243 14.0901 271.273 16.6497 271.273 19.898C271.273 20.9864 271.169 21.9983 270.961 22.9337H252.707C252.724 25.5357 253.486 27.568 254.992 29.0306C256.498 30.4762 258.411 31.199 260.73 31.199C264.539 31.199 266.971 29.3537 268.027 25.6633ZM252.707 19.6939H266.703L266.755 18.9796C266.755 17.2449 266.114 15.8673 264.833 14.8469C263.569 13.8265 261.96 13.3163 260.003 13.3163C258.047 13.3163 256.394 13.8946 255.044 15.051C253.711 16.1905 252.932 17.7381 252.707 19.6939Z" fill="#27292F"/>
<path d="M137.906 31.4765C137.906 33.5167 136.223 35.1706 134.146 35.1706C132.07 35.1706 130.386 33.5167 130.386 31.4765C130.386 29.4363 132.07 27.7824 134.146 27.7824C136.223 27.7824 137.906 29.4363 137.906 31.4765Z" fill="#ADB0BC"/>
</svg>
