<svg width="269" height="15" viewBox="0 0 269 15" fill="none" xmlns="http://www.w3.org/2000/svg">
<path d="M0 10.6407V0.214746H8.99856V10.6407H7.09958V1.93271H1.89898V10.6407H0Z" fill="#ADB0BC"/>
<path d="M14.3856 0.214746H16.1983V2.17967C16.5435 1.54259 17.0614 1.02004 17.752 0.612026C18.4497 0.204009 19.1834 0 19.9531 0C21.3701 0 22.521 0.504653 23.4058 1.51396C24.2905 2.51611 24.7329 3.82248 24.7329 5.43307C24.7329 7.03651 24.2725 8.34288 23.3518 9.35218C22.4311 10.3543 21.255 10.8554 19.8236 10.8554C19.0683 10.8554 18.3778 10.6943 17.752 10.3722C17.1262 10.0429 16.6371 9.5884 16.2846 9.00859V15H14.3856V0.214746ZM19.5107 9.16965C20.4242 9.16965 21.2047 8.84037 21.852 8.18182C22.5066 7.51611 22.8339 6.60702 22.8339 5.45455C22.8339 4.30923 22.5066 3.40014 21.852 2.72727C21.2047 2.0544 20.4242 1.71797 19.5107 1.71797C18.6403 1.71797 17.8707 2.06514 17.2017 2.75948C16.5328 3.45383 16.1983 4.35218 16.1983 5.45455C16.1983 6.55691 16.5328 7.45168 17.2017 8.13887C17.8707 8.82606 18.6403 9.16965 19.5107 9.16965Z" fill="#ADB0BC"/>
<path d="M30.3249 9.31997C29.3395 8.28919 28.8468 6.99356 28.8468 5.43307C28.8468 3.87258 29.3395 2.57695 30.3249 1.54617C31.3104 0.51539 32.5836 0 34.1445 0C35.1875 0 36.1154 0.2398 36.9282 0.719399C37.741 1.19184 38.3668 1.83966 38.8056 2.66285C39.2516 3.48604 39.4745 4.40945 39.4745 5.43307C39.4745 6.9864 38.9746 8.27845 37.9748 9.30923C36.9749 10.34 35.6982 10.8554 34.1445 10.8554C32.5836 10.8554 31.3104 10.3436 30.3249 9.31997ZM37.5108 5.43307C37.5108 4.33071 37.1943 3.44309 36.5613 2.77022C35.9499 2.06872 35.1443 1.71797 34.1445 1.71797C33.1734 1.71797 32.3714 2.06514 31.7384 2.75948C31.1054 3.45383 30.7889 4.34503 30.7889 5.43307C30.7889 6.52112 31.1054 7.41231 31.7384 8.10666C32.3714 8.801 33.1734 9.14818 34.1445 9.14818C35.1299 9.14818 35.9355 8.80458 36.5613 8.11739C37.1943 7.42305 37.5108 6.52828 37.5108 5.43307Z" fill="#ADB0BC"/>
<path d="M49.0156 9.19112C49.9939 9.19112 50.7599 8.92627 51.3138 8.39656C51.8749 7.8597 52.2633 7.08303 52.4791 6.06657L54.1839 6.70007C53.8889 8.01718 53.2919 9.0408 52.3928 9.77094C51.4936 10.4939 50.3823 10.8554 49.0588 10.8554C47.4116 10.8554 46.0808 10.3508 45.0666 9.34145C44.0596 8.33214 43.5561 7.00429 43.5561 5.35791C43.5561 4.59198 43.6963 3.87616 43.9769 3.21045C44.2574 2.53758 44.635 1.9685 45.1098 1.50322C45.5845 1.03794 46.142 0.67287 46.7822 0.408017C47.4295 0.136006 48.1057 0 48.8106 0C50.0838 0 51.1484 0.332856 52.0043 0.998568C52.8675 1.65712 53.425 2.57695 53.6767 3.75805L51.9288 4.28418C51.7634 3.45383 51.4109 2.80959 50.8714 2.35147C50.332 1.89334 49.6378 1.66428 48.789 1.66428C48.379 1.66428 47.9762 1.7466 47.5806 1.91124C47.185 2.07588 46.8217 2.30852 46.4908 2.60916C46.1671 2.90981 45.9046 3.29993 45.7032 3.77953C45.509 4.25913 45.4119 4.78525 45.4119 5.35791C45.4119 6.48175 45.7679 7.40158 46.48 8.11739C47.1994 8.83321 48.0445 9.19112 49.0156 9.19112Z" fill="#ADB0BC"/>
<path d="M60.6607 10.6407V1.93271H57.3698V0.214746H65.872V1.93271H62.5812V10.6407H60.6607Z" fill="#ADB0BC"/>
<path d="M70.1154 0.214746H71.9281V2.17967C72.2733 1.54259 72.7912 1.02004 73.4818 0.612026C74.1795 0.204009 74.9132 0 75.6829 0C77.0999 0 78.2508 0.504653 79.1355 1.51396C80.0203 2.51611 80.4627 3.82248 80.4627 5.43307C80.4627 7.03651 80.0023 8.34288 79.0816 9.35218C78.1609 10.3543 76.9848 10.8554 75.5534 10.8554C74.7981 10.8554 74.1076 10.6943 73.4818 10.3722C72.856 10.0429 72.3668 9.5884 72.0144 9.00859V15H70.1154V0.214746ZM75.2405 9.16965C76.154 9.16965 76.9345 8.84037 77.5818 8.18182C78.2364 7.51611 78.5637 6.60702 78.5637 5.45455C78.5637 4.30923 78.2364 3.40014 77.5818 2.72727C76.9345 2.0544 76.154 1.71797 75.2405 1.71797C74.3701 1.71797 73.6005 2.06514 72.9315 2.75948C72.2625 3.45383 71.9281 4.35218 71.9281 5.45455C71.9281 6.55691 72.2625 7.45168 72.9315 8.13887C73.6005 8.82606 74.3701 9.16965 75.2405 9.16965Z" fill="#ADB0BC"/>
<path d="M84.7276 7.67717C84.7276 6.63923 85.0837 5.84109 85.7958 5.28275C86.5079 4.71725 87.4502 4.4345 88.6227 4.4345C89.3707 4.4345 90.1116 4.54545 90.8453 4.76736L91.8056 5.03579V3.95132C91.8056 3.20687 91.5646 2.63064 91.0827 2.22262C90.608 1.80744 89.9714 1.59986 89.1729 1.59986C88.4249 1.59986 87.8062 1.79313 87.3171 2.17967C86.8352 2.55906 86.5259 3.08518 86.3892 3.75805L84.6629 3.27487C84.8787 2.26557 85.3822 1.46743 86.1734 0.880458C86.9647 0.293486 87.9645 0 89.1729 0C90.59 0 91.6869 0.361489 92.4638 1.08447C93.2478 1.80744 93.6398 2.81675 93.6398 4.11238V10.6407H91.8056V8.98712C91.5395 9.55261 91.0791 10.0072 90.4245 10.3508C89.7772 10.6872 89.0363 10.8554 88.2019 10.8554C87.2236 10.8554 86.3964 10.5727 85.7202 10.0072C85.0585 9.41303 84.7276 8.63636 84.7276 7.67717ZM91.8056 6.75376V6.52828L90.8237 6.23837C90.09 6.02362 89.4427 5.91625 88.8816 5.91625C88.1983 5.91625 87.6624 6.05941 87.274 6.34574C86.8855 6.62491 86.6913 7.02935 86.6913 7.55906C86.6913 8.05297 86.8783 8.45025 87.2524 8.75089C87.6264 9.04438 88.1551 9.19112 88.8385 9.19112C89.7232 9.19112 90.4389 8.9728 90.9856 8.53615C91.5323 8.09234 91.8056 7.49821 91.8056 6.75376Z" fill="#ADB0BC"/>
<path d="M100.915 0.214746V4.4345H106.224V0.214746H108.144V10.6407H106.224V6.15247H100.915V10.6407H99.0161V0.214746H100.915Z" fill="#ADB0BC"/>
<path d="M118.333 9.19112C119.311 9.19112 120.077 8.92627 120.631 8.39656C121.192 7.8597 121.58 7.08303 121.796 6.06657L123.501 6.70007C123.206 8.01718 122.609 9.0408 121.71 9.77094C120.811 10.4939 119.699 10.8554 118.376 10.8554C116.729 10.8554 115.398 10.3508 114.384 9.34145C113.377 8.33214 112.873 7.00429 112.873 5.35791C112.873 4.59198 113.013 3.87616 113.294 3.21045C113.574 2.53758 113.952 1.9685 114.427 1.50322C114.901 1.03794 115.459 0.67287 116.099 0.408017C116.747 0.136006 117.423 0 118.128 0C119.401 0 120.465 0.332856 121.321 0.998568C122.184 1.65712 122.742 2.57695 122.994 3.75805L121.246 4.28418C121.08 3.45383 120.728 2.80959 120.188 2.35147C119.649 1.89334 118.955 1.66428 118.106 1.66428C117.696 1.66428 117.293 1.7466 116.898 1.91124C116.502 2.07588 116.139 2.30852 115.808 2.60916C115.484 2.90981 115.222 3.29993 115.02 3.77953C114.826 4.25913 114.729 4.78525 114.729 5.35791C114.729 6.48175 115.085 7.40158 115.797 8.11739C116.516 8.83321 117.362 9.19112 118.333 9.19112Z" fill="#ADB0BC"/>
<path d="M129.978 10.6407V1.93271H126.687V0.214746H135.189V1.93271H131.898V10.6407H129.978Z" fill="#ADB0BC"/>
<path d="M139.432 10.6407V0.214746H144.827C145.877 0.214746 146.708 0.465283 147.32 0.966357C147.938 1.46027 148.248 2.13314 148.248 2.98497C148.248 3.51467 148.089 3.99427 147.773 4.42377C147.463 4.85326 147.05 5.15032 146.532 5.31496C147.172 5.45097 147.672 5.72656 148.032 6.14173C148.399 6.55691 148.582 7.09019 148.582 7.74159C148.582 8.57194 148.258 9.26628 147.611 9.82462C146.978 10.3686 146.162 10.6407 145.162 10.6407H139.432ZM141.331 4.53114H144.806C145.288 4.53114 145.662 4.41661 145.928 4.18754C146.194 3.95848 146.327 3.63994 146.327 3.23193C146.327 2.82391 146.194 2.50537 145.928 2.27631C145.662 2.04724 145.288 1.93271 144.806 1.93271H141.331V4.53114ZM141.331 8.92269H145.021C145.518 8.92269 145.913 8.801 146.208 8.55762C146.51 8.30709 146.661 7.96707 146.661 7.53758C146.661 7.10809 146.518 6.77523 146.23 6.53901C145.942 6.29563 145.539 6.17394 145.021 6.17394H141.331V8.92269Z" fill="#ADB0BC"/>
<path d="M154.379 9.31997C153.394 8.28919 152.901 6.99356 152.901 5.43307C152.901 3.87258 153.394 2.57695 154.379 1.54617C155.365 0.51539 156.638 0 158.199 0C159.242 0 160.169 0.2398 160.982 0.719399C161.795 1.19184 162.421 1.83966 162.86 2.66285C163.306 3.48604 163.529 4.40945 163.529 5.43307C163.529 6.9864 163.029 8.27845 162.029 9.30923C161.029 10.34 159.752 10.8554 158.199 10.8554C156.638 10.8554 155.365 10.3436 154.379 9.31997ZM161.565 5.43307C161.565 4.33071 161.248 3.44309 160.615 2.77022C160.004 2.06872 159.198 1.71797 158.199 1.71797C157.228 1.71797 156.425 2.06514 155.792 2.75948C155.16 3.45383 154.843 4.34503 154.843 5.43307C154.843 6.52112 155.16 7.41231 155.792 8.10666C156.425 8.801 157.228 9.14818 158.199 9.14818C159.184 9.14818 159.99 8.80458 160.615 8.11739C161.248 7.42305 161.565 6.52828 161.565 5.43307Z" fill="#ADB0BC"/>
<path d="M178.241 10.6407V1.93271H174.95V0.214746H183.452V1.93271H180.162V10.6407H178.241Z" fill="#ADB0BC"/>
<path d="M187.696 0.214746H189.508V2.17967C189.854 1.54259 190.372 1.02004 191.062 0.612026C191.76 0.204009 192.494 0 193.263 0C194.68 0 195.831 0.504653 196.716 1.51396C197.601 2.51611 198.043 3.82248 198.043 5.43307C198.043 7.03651 197.583 8.34288 196.662 9.35218C195.741 10.3543 194.565 10.8554 193.134 10.8554C192.378 10.8554 191.688 10.6943 191.062 10.3722C190.436 10.0429 189.947 9.5884 189.595 9.00859V15H187.696V0.214746ZM192.821 9.16965C193.734 9.16965 194.515 8.84037 195.162 8.18182C195.817 7.51611 196.144 6.60702 196.144 5.45455C196.144 4.30923 195.817 3.40014 195.162 2.72727C194.515 2.0544 193.734 1.71797 192.821 1.71797C191.95 1.71797 191.181 2.06514 190.512 2.75948C189.843 3.45383 189.508 4.35218 189.508 5.45455C189.508 6.55691 189.843 7.45168 190.512 8.13887C191.181 8.82606 191.95 9.16965 192.821 9.16965Z" fill="#ADB0BC"/>
<path d="M202.793 10.6407V0.214746H204.692V8.79384L209.645 0.214746H212.58V10.6407H210.659V2.06156L205.717 10.6407H202.793Z" fill="#ADB0BC"/>
<path d="M219.855 0.214746V4.4345H225.163V0.214746H227.084V10.6407H225.163V6.15247H219.855V10.6407H217.956V0.214746H219.855Z" fill="#ADB0BC"/>
<path d="M232.449 10.6407V0.214746H234.348V8.79384L239.301 0.214746H242.236V10.6407H240.315V2.06156L235.373 10.6407H232.449Z" fill="#ADB0BC"/>
<path d="M249.759 10.6407V1.93271H246.468V0.214746H254.97V1.93271H251.68V10.6407H249.759Z" fill="#ADB0BC"/>
<path d="M259.214 10.6407V0.214746H261.113V8.79384L266.065 0.214746H269V10.6407H267.079V2.06156L262.138 10.6407H259.214Z" fill="#ADB0BC"/>
</svg>
