<svg width="76" height="97" viewBox="0 0 76 97" fill="none" xmlns="http://www.w3.org/2000/svg">
<path d="M37.7329 54.0691C28.8962 54.0691 21.7922 46.9651 21.7922 38.1284C21.7922 29.2917 28.8962 22.1877 37.7329 22.1877C46.5696 22.1877 53.6736 29.2917 53.6736 38.1284C53.6736 46.9651 46.3963 54.0691 37.7329 54.0691ZM37.7329 27.3857C31.8418 27.3857 26.9902 32.2373 26.9902 38.1284C26.9902 44.0195 31.8418 48.8711 37.7329 48.8711C43.624 48.8711 48.4756 44.0195 48.4756 38.1284C48.4756 32.2373 43.624 27.3857 37.7329 27.3857Z" fill="#CAD5DC" stroke="#CAD5DC"/>
<path d="M37.733 96.0002C36.0003 96.0002 34.4409 95.1339 33.4013 93.7477L8.45056 59.7871C3.59903 53.2028 1 45.579 1 37.6087C1 18.3758 16.5942 2.08856 35.827 1.04895C46.0499 0.529139 55.5797 4.16778 63.0302 11.0985C70.3075 18.0293 74.466 27.5591 74.466 37.6087C74.466 45.4058 72.0402 52.8563 67.3619 59.2672L66.6689 60.1336L41.8914 93.7477C40.8518 95.1339 39.2924 96.0002 37.733 96.0002ZM13.3021 57.7078L37.5597 90.8022H37.733L62.3371 57.188C66.6689 51.6434 68.9214 44.8859 68.9214 37.7819C68.9214 29.1185 65.456 20.9749 59.2183 15.0837C52.9806 8.84604 44.6637 5.90047 36.0003 6.24701C19.713 7.11335 6.19806 21.1481 6.19806 37.6087C6.19806 44.7127 8.45056 51.4702 12.9555 57.0148L13.3021 57.7078Z" fill="#CAD5DC" stroke="#CAD5DC"/>
</svg>
