<svg width="155" height="34" fill="none" xmlns="http://www.w3.org/2000/svg"><g clip-path="url(#clip0_574_1238)"><path fill-rule="evenodd" clip-rule="evenodd" d="M18.437 3.232h.123v.246h.254v.245h.25v.744h.251v.25h.254v.248h.25v.247h.246v.25h-.245v.245h.496V6.2h-.25v.246h.755V6.7h-.254v.241h.254v.25h.249v.248h.256v.248h.245v.248h.254v.742l-.004.003h-.25v.25h.254v-.25h.25v.25h.252v.745h.246v-.25h.255v.742h.247v.252h.254v.244h.253v.247c-.006 0-.006.004-.006.004h-.247v.247h.253v-.247h.25v.247h.25v.246s-.003 0-.003.002h-.247v.247h-.25v.252h.25v-.252h.247s.003 0 .003.006v.246h.25v.237l-.002.005h-.247v.246h.25v.248h.251v.251h.249v.243h.256v.248h.245v.253h.25v.246h.253v.248h.25v.252h.253v.243l-.003.004h-.25v.246h.25l.003.004v.246h.254v.245h.25v.25h-.25v.25h.496v.493h.25v.25h.25v.248h.255v.244h.248v.251h.252v.492h.502v.492h.5v.254h-.25v.244h.25v.498h.501v.249h-.246v.244h.498v.501h.254v.246h.247v.245h.254v.253h.252v.246h.25v.25h.248v.248h.254v.246h-.254v.248h.254v.25h.25v.245h.248v.246h.254v.254h.25v.49h.25v.5h.252v.242h-.252v.25h.252v-.25h.249v.25h.254v.248h.25v.247h.252v.25h.248v.248h.251v.745h.25v.246h.255v.248h-.255v.248h.754v.251h-.252v.243h.252v-.24c0-.003.002-.003.002-.003h.25v.493h-.252v.248h.502v.497h.5v.249h.253v.247h.247v.249h-.247v.246h.247v.251h-.247v.247h.247v-.247h.252v.735h.255v.253h-.754v-.49h-.253v-.251h-.25v-.744h-1.004v-.249h.252v-.244c0-.003.002-.003.002-.003h.25v-.249h-.252v.249h-.252v-.249h-.247v-.251h-.756v-.246h.251v-.248h-.251v-.241s0-.009.007-.009h.244v-.243h-.251v.243h-.75v-.243h.25v-.25h-.25v.25h-.755v-.25h.252v-.25h-.752v-.247h.249v-.246h-.249v.245l-.005.001h-.25v.248h-1.755v.248h-.247v-.248H30.1v.248h-.752v.251h-.25v-.25h-.753v.25h-.252v-.25h-.248v.25h-.255v-.25h-.25v.25h-.25v-.25h-.496v.25h-.507v-.25h-.25v.25h-2.255v.243h-.253v-.243h-.254v.243h-.247v.25h-.255v-.25h-.246v.25H20.82v.248h-.505v-.248h-.25v.248h-.75v.246h-.251v-.246h-.25v.246h-.255v-.246h-.123V25.04h.627v-.248h.25v.248h.255v-.248h.746v-.25h1.256v-.241h.254v.241h.25v-.241h.251v-.25h.247v.25h.254v-.25h.247v.25h.255v-.25h.253v-.25h.25v.25h.25v-.25h.25v.25h.252v-.25h.249v-.247h.501v-.244h.503v-.253h1.253v-.247h.25v.247h.25v-.742h.255v.251h.247v-.25h.253v-.743h-.253v-.25h-.247v-.246h-.256v-.253h-.249v-.244h-.497v-.246h-.249v-.502h-.254v-.244h-.253v-.249h.253v-.248h-.253v-.25h-.25v-.244h-.503v-.495h-.75v-.251h.249v-.244h-.25v-.499h-.25v-.244h-.25v-.248h-.501v-.25h-.253v-.246h-.255v-.498h-.247v-.249h-.5v-.245h.246v-.25h-.247v-.246h-.25v-.244l-.002-.003h-.25v.247h-.253v-.247h.25c0-.003.004-.008.004-.008v-.24l-.004-.004h-.25v-.247h.25l.004-.002v-.244h.25v-.254h-.75v.254h-.255v-.254h-.249v-.248h-.254v-.243h.254v-.25h-.254v-.25h-.252v-.244h-.25v-.241l-.002-.002h-.243v.242h-.25v-.242h.245l.005-.004v-.743h-.25v.248h-.255v-.248h.254v-.247h-.755v-.747h-.254v-.246h-.123v-6.69zM.507 30.99l-.004-.002v-.244c0-.006 0-.006.003-.006h.248V30.5h-.25v.237H.25V30.5H0v-.251h.25v-.248h.253v.248h.251v-.248h.251v-.25h.752v-.247h.25v-.248h.249v-.248h-.25v-.248h.502v-.995h.25v-.243h.25v-.251h.256v-.742h.248v-.253h.25v-.244h-.25v-.248h.25v-.249h.255v-.25h.247v-.495h.25v-.49h.254v-.25h.246v-.243s0-.008.005-.008h.25v-.246h-.255v-.744h.254v-.244h.253v-.251h.25v-.248h-.25v-.247h.25v-.247h.25v-.25h.25v-.5h.504v-.244h-.25v-.246h.25v-.25h.25v-.745h.248v-.247h-.248v-.25h.248v-.245h.253v-.253h.25v-.241h-.25v-.252h.25v-.243h.253v-.248h.25v-.252h-.25v-.243h.25v-.499h.502v-.246h-.25v-.247h.25v-.25h.247v-.25H8.78v-.245h.247v-.25h.755v-.246h-.25v-.247h.25v-.251h-.25v-.248h.25v-.246h.255v-.502h.5v-.242h-.251v-.251h.25v-.737h.252v-.251h.248v-.247h.255v-.248h-.255v-.247h.255v-.496h.25V9.92h.248v-.246h.25v-.25h.25v-.252h-.25V8.93h.25v-.25h.25v-.746h.507V7.44h.245l.002.003v.245h.25s0 .004.003.004v.243h.25v-.247h-.247l-.003-.003V7.44h-.25l-.003-.002v-.246h-.247v-.25h.247V6.7h.253v-.256h-.253V6.2h.253v-.25h.25v.25h.25v-.25h-.25v-.243h-.25V5.46h.25v-.25h.25v-.745h.247l.002.005v.245h.255v-.25h.247v-.248h.253v-.245h.252V3.72h-.252v.247s-.006 0-.006.005h-.247V3.72h-.247v-.244h.247v-.243s0-.004.007-.004h.246v-.247h.252v-.256h-.252v-.244h.754v.244h.252V1.74h-.5l-.003-.005v-.494h.497s0 .003.006.003v.245h.245v-.248h-.245V.994h.245V.746h.252V0h.756v.25h-.253v.248h.253v.248h.25v.248h-.25v.248h.25v.248h-.25v.25h.25v.243h.25v.5h.25v.5h.252v.247h.126v6.69h-.378v-.495h-.25v-.252h-.246c-.004 0-.004.003-.004.009v.243h-.25v-.252h.25V8.93h-.25v-.25h-.253v-.248h-.249v.247h-.254v-.247h.25s0-.002.004-.002v-.244h-.254v-.252h-.252v-.248h-.245V7.44h-.252v-.25h-.25v.248h-.252V7.19h-.752v.248h.247v.247h.253v.248h-.253v.252h-.247v.987h-.504v.252h.25v.742h-.25v.251h-.25v.496h.25v.246h-.5v.249h.25v.246h-.25v.248l.003.004h.247v.243h-.247l-.003.002v.492h-.253v.995h-.247v.494h-.253v.498h-.254v.246h.254v.745h-.254v.25h-.25v.247h-.25v.745h.25v.243h-.5v.5h-.247v.495h-.25v.494h-.256v.245h.255v.746h-.255v.746h-.248v.743h-.252v.744h-.25v.247h-.25v.247h.25v.251h-.25v.245h-.254v.246h-.25v.254h.25v.243h-.25v.247h.25v.251h-.25v.25h-.25v.24h-.255v.745H8.78v.25h-.25v.248h.25v.249h.247v.243H8.78v.747h-.25v.742h1.252v-.243h.255v-.25h1.254v-.249h.748v-.247h1.757v-.246h.25v-.254h.75v.254h.254v-.254h.503v-.492h.25v.249h.253v-.249h.245v.249h.252v-.249h.756v-.245c0-.003-.002-.003-.002-.003h-.251v-.25h.253v.244l.003.006h.247v-.25h.25v.25h.25v-.25h.252v-.247h.126v3.224h-.126v.246h-.252v-.246h-.25v.246h-.25v.251h-.25v-.251h-.756v.251h-.252v-.251h-.245v.251h-.252v.249h-.25v-.249h-.252v.249h-.252v-.249h-.253v.249h-.247v-.249h-.255v-.251h-.25v.251h.25v.249h-.75v.247h-.252v-.247h-.247v.247h-.756v.249h-.251v-.248h-.25v.248h-.753v-.248h-.248v.248h-.252v-.248h-.25v.248h-.25v-.248h-.254v.248H8.531v.247H8.28v.25h-.25v-.25h-.253v.25h-.25v-.25h-.253v.25H6.02v.247h-.249v.252h-.25v-.252h-.253v.252h-.254v-.252h-.246v-.247h-.254v.247h.25s0 .002.004.002v.25h-.254v.236h-.751V30.5h-.25v.236h-.25V30.5h-.755v.236h-.253v.253h-.248v-.253h-.25v.253h-.252v-.253h-.25v.253H.506z" fill="#0047BB"/><path d="M45.61 8.826h-6.118v-2.1c0-.739.314-1.05 1.066-1.05h14.845v2.066c0 .741-.341 1.084-1.09 1.084h-5.272v17.832c0 .74-.346 1.05-1.09 1.05h-2.34V8.825zM57.903 34c-.748 0-1.06-.307-1.06-1.05V11.445h1.871c.744 0 .936.31 1.06 1.048l.247 1.792.723-1.451c.62-1.263 1.401-1.637 4.053-1.637 4.803 0 6.393 1.576 6.393 8.396 0 6.818-1.59 8.39-6.393 8.39-2.903 0-3.368-.524-3.78-1.386l-.713-1.45V34h-2.401zm5.835-19.932c-2.778 0-3.434 1.048-3.434 5.246v.525c0 3.948.656 5.245 3.434 5.245 3.338 0 3.991-.246 3.991-5.49 0-5.279-.653-5.526-3.991-5.526zm14.07 13.637h-1.873c-.75 0-1.059-.307-1.059-1.046V11.445h2.401c.716 0 1.032.311 1.032 1.052v9.162l7.425-10.214h1.873c.749 0 1.059.311 1.059 1.052v15.208h-2.37c-.75 0-1.092-.336-1.092-1.046V17.49l-7.396 10.214zm18.41 0h-2.406c-.745 0-1.092-.307-1.092-1.046V11.445h2.405c.75 0 1.093.311 1.093 1.052v5.247h5.899v-6.3h2.398c.748 0 1.062.312 1.062 1.053v15.208h-2.37c-.753 0-1.09-.307-1.09-1.046V20.64h-5.899v7.065zm16.349 0h-1.871c-.75 0-1.06-.307-1.06-1.046V11.445h2.398c.719 0 1.035.311 1.035 1.052v9.162l7.423-10.214h1.869c.753 0 1.066.311 1.066 1.052v15.208h-2.375c-.748 0-1.09-.336-1.09-1.046V17.49l-7.395 10.214zm25.334-16.26v1.82c0 .743-.346 1.08-1.091 1.08h-2.903v12.312c0 .74-.311 1.048-1.06 1.048h-2.4v-13.36h-3.714v-1.852c0-.737.345-1.048 1.091-1.048h10.077zm6.242 16.26h-1.877c-.743 0-1.055-.307-1.055-1.046V11.445h2.402c.716 0 1.03.311 1.03 1.052v9.162l7.42-10.214h1.873c.754 0 1.063.311 1.063 1.052v15.208h-2.37c-.75 0-1.091-.336-1.091-1.046V17.49l-7.395 10.214z" fill="#1D1D1B"/></g><defs><clipPath id="clip0_574_1238"><path fill="#fff" d="M0 0h155v34H0z"/></clipPath></defs></svg>