<svg width="125" height="85" fill="none" xmlns="http://www.w3.org/2000/svg"><path d="M28.709 37.865c4.62.56 8.307 2.24 11.06 5.04s4.13 6.417 4.13 10.85c0 4.387-1.633 7.98-4.9 10.78-3.267 2.8-7.42 4.2-12.46 4.2-4.247 0-7.887-1.167-10.92-3.5-2.987-2.38-5.017-5.483-6.09-9.31l3.36-1.05c.793 3.267 2.403 5.81 4.83 7.63 2.427 1.82 5.413 2.73 8.96 2.73 3.967 0 7.233-1.05 9.8-3.15 2.613-2.1 3.92-4.76 3.92-7.98 0-4.013-1.307-7.187-3.92-9.52-2.613-2.333-6.37-3.5-11.27-3.5l-1.75-2.59 16.8-18.24h-30.1v-3.29h33.74v4.34l-15.19 16.56zm24.311 7.49c0 5.927 1.586 10.803 4.76 14.63 3.172 3.827 7.046 5.74 11.62 5.74 4.572 0 8.446-1.913 11.62-5.74 3.172-3.827 4.76-8.703 4.76-14.63v-5.71c0-5.927-1.588-10.803-4.76-14.63-3.174-3.827-7.047-5.74-11.62-5.74-4.574 0-8.448 1.913-11.62 5.74-3.174 3.827-4.76 8.703-4.76 14.63v5.71zm-3.5 0v-5.71c0-6.907 1.912-12.6 5.74-17.08 3.873-4.527 8.586-6.79 14.14-6.79 5.552 0 10.242 2.263 14.07 6.79 3.873 4.48 5.81 10.173 5.81 17.08v5.71c0 6.907-1.938 12.623-5.81 17.15-3.828 4.48-8.517 6.72-14.07 6.72-5.554 0-10.268-2.24-14.14-6.72-3.828-4.527-5.74-10.243-5.74-17.15z" fill="#373A3C"/><path d="M111.161 28.87h3.132v10.833H125v2.944h-10.707v10.895h-3.132V42.647h-10.833v-2.944h10.833V28.871z" fill="#26D07C"/></svg>