<svg width="85" height="85" fill="none" xmlns="http://www.w3.org/2000/svg"><path d="M70.568 19.219L42.582 3.06l-28.11 16.23m32.032 55.651L74.688 58.67V26.28m-64.212 0v32.39L38.31 74.74" stroke="#373A3C" stroke-width="3" stroke-miterlimit="10"/><path d="M10.312 26.28a4.732 4.732 0 1 0 0-9.465 4.732 4.732 0 0 0 0 9.464zm64.376 0a4.732 4.732 0 1 0 0-9.465 4.732 4.732 0 0 0 0 9.464zm-32.34 55.659a4.732 4.732 0 1 0 0-9.465 4.732 4.732 0 0 0 0 9.465z" stroke="#373A3C" stroke-width="3" stroke-miterlimit="10"/><path d="M59.553 30.336v19.596l-16.97 9.798m16.97-29.394l-16.97-9.798-16.97 9.798m33.94 0l-16.97 9.798m-16.97-9.798v19.596l16.97 9.798m-16.97-29.394l16.97 9.798m0 19.596V40.134" stroke="#26D07C" stroke-width="3" stroke-miterlimit="10"/></svg>