<svg width="85" height="85" fill="none" xmlns="http://www.w3.org/2000/svg"><path d="M41.75 57.91c-3.596.882-7.735 1.387-12.14 1.387-13.826 0-25.035-4.974-25.035-10.952m50.071-17.57c0 5.979-11.209 10.953-25.036 10.953-13.826 0-25.035-4.974-25.035-10.952" stroke="#373A3C" stroke-width="3" stroke-miterlimit="10"/><path d="M43.67 74.958c-4.009 1.2-8.848 1.907-14.06 1.907-13.826 0-25.035-4.974-25.035-10.952V13.325m50.071 0v32.822" stroke="#373A3C" stroke-width="3" stroke-miterlimit="10"/><path d="M29.61 24.159c13.827 0 25.036-4.851 25.036-10.835 0-5.983-11.209-10.834-25.036-10.834-13.826 0-25.035 4.85-25.035 10.834S15.784 24.16 29.61 24.16z" stroke="#373A3C" stroke-width="3" stroke-miterlimit="10"/><path d="M42.61 62.422c0 1.315.15 2.595.432 3.824l-3.302 1.907 4.98 8.626 3.307-1.909a16.998 16.998 0 0 0 6.62 3.827v3.813h9.96v-3.813a16.995 16.995 0 0 0 6.62-3.827l3.306 1.91 4.98-8.627-3.301-1.907c.282-1.229.432-2.509.432-3.824s-.15-2.595-.432-3.824l3.302-1.907-4.98-8.626-3.307 1.909a16.995 16.995 0 0 0-6.62-3.827v-3.813h-9.96v3.813a16.996 16.996 0 0 0-6.62 3.827l-3.306-1.91-4.98 8.627 3.301 1.906a17.067 17.067 0 0 0-.432 3.825z" stroke="#26D07C" stroke-width="3" stroke-miterlimit="10"/><path d="M59.627 69.727a7.305 7.305 0 1 0 0-14.61 7.305 7.305 0 0 0 0 14.61z" stroke="#26D07C" stroke-width="3" stroke-miterlimit="10"/></svg>