<svg width="85" height="85" fill="none" xmlns="http://www.w3.org/2000/svg"><g clip-path="url(#clip0_919_219)" stroke-width="3" stroke-miterlimit="10"><path d="M57.607 2.49H27.392v60.098h30.215V2.491z" stroke="#373A3C"/><path d="M27.392 12.784H2.49v49.804h24.902m30.215-49.804H82.51v49.804H57.607m12.452-39.844h4.98" stroke="#373A3C"/><path d="M65.078 32.705h9.961m-9.961 9.961h9.961" stroke="#26D07C"/><path d="M9.96 42.666h9.962m45.156 9.961h9.961" stroke="#373A3C"/><path d="M9.96 52.627h9.962M9.96 32.705h9.962" stroke="#26D07C"/><path d="M14.941 22.744h4.98m25.235-9.961h4.98" stroke="#373A3C"/><path d="M34.863 22.744h15.274" stroke="#26D07C"/><path d="M34.863 32.705h15.274m-15.274 9.961h15.274" stroke="#373A3C"/><path d="M34.863 52.627h15.274" stroke="#26D07C"/><path d="M52.627 82.51H32.373v-9.961h20.254v9.96z" stroke="#373A3C"/><path d="M12.451 62.588v14.941h19.922m20.254.001h19.922V62.587m-30.049.001v9.96" stroke="#373A3C"/></g><defs><clipPath id="clip0_919_219"><path fill="#fff" d="M0 0h85v85H0z"/></clipPath></defs></svg>