<svg width="70" height="70" fill="none" xmlns="http://www.w3.org/2000/svg"><g clip-path="url(#a)"><path fill-rule="evenodd" clip-rule="evenodd" d="M35 4.086C17.927 4.086 4.086 17.926 4.086 35c0 17.073 13.84 30.914 30.914 30.914 10.636 0 20.02-5.37 25.585-13.555a2.043 2.043 0 1 1 3.378 2.297C57.67 63.913 47.046 70 35 70 15.67 70 0 54.33 0 35S15.67 0 35 0c12.266 0 23.057 6.312 29.304 15.855a2.043 2.043 0 0 1-3.419 2.237C55.362 9.654 45.831 4.086 35 4.086Zm1.815 22.483a2.845 2.845 0 1 0 0 5.69 2.845 2.845 0 0 0 0-5.69Zm5.046 7.597a6.93 6.93 0 1 0-10.09 0 7.629 7.629 0 1 0 10.09 0Zm-5.046 2.179a3.543 3.543 0 1 0 0 7.086 3.543 3.543 0 0 0 0-7.086Zm-15.832-13.5a2.043 2.043 0 0 1 1.117 1.821v20.808a2.043 2.043 0 0 1-4.085 0V28.686l-1.92 1.4a2.043 2.043 0 1 1-2.409-3.3l5.167-3.77a2.043 2.043 0 0 1 2.13-.171Zm39.992 3.688c1.128 0 2.043.915 2.043 2.043v4.94h4.94a2.043 2.043 0 0 1 0 4.086h-4.94v4.939a2.043 2.043 0 0 1-4.086 0v-4.94h-4.94a2.043 2.043 0 0 1 0-4.085h4.94v-4.94c0-1.128.914-2.043 2.043-2.043Z" fill="#65537B"/></g><defs><clipPath id="a"><path fill="#fff" d="M0 0h70v70H0z"/></clipPath></defs></svg>